<?xml version="1.0" encoding="utf-8"?>
<!-- Generator: Adobe Illustrator 22.0.1, SVG Export Plug-In . SVG Version: 6.00 Build 0)  -->
<svg version="1.1" id="Слой_1" xmlns="http://www.w3.org/2000/svg" xmlns:xlink="http://www.w3.org/1999/xlink" x="0px" y="0px"
	 viewBox="0 0 16 16" style="enable-background:new 0 0 16 16;" xml:space="preserve">
<style type="text/css">
	.st0{fill:#202027;}
</style>
<path class="st0" d="M6,0v5H5V0H3v5H2V0H0v5c0,1.1,0.9,2,2,2h1v8c0,0.6,0.4,1,1,1l0,0c0.6,0,1-0.4,1-1V7h1c1.1,0,2-0.9,2-2V0H6z
	 M16,3.9C16,1.8,14.7,0,13,0s-3,1.8-3,3.9c-0.1,1.5,0.7,2.9,2,3.7V15c0,0.6,0.4,1,1,1s1-0.4,1-1V7.6C15.3,6.8,16.1,5.4,16,3.9z"/>
</svg>
