<?xml version="1.0" encoding="utf-8"?>
<!-- Generator: Adobe Illustrator 22.0.1, SVG Export Plug-In . SVG Version: 6.00 Build 0)  -->
<svg version="1.1" id="Слой_1" xmlns="http://www.w3.org/2000/svg" xmlns:xlink="http://www.w3.org/1999/xlink" x="0px" y="0px"
	 viewBox="0 0 14 14" style="enable-background:new 0 0 14 14;" xml:space="preserve">
<style type="text/css">
	.st0{fill:#202027;}
</style>
<path class="st0" d="M1.9,10.3c-1,0-1.9,0.8-1.9,1.8S0.8,14,1.8,14s1.9-0.8,1.9-1.8l0,0C3.8,11.2,2.9,10.3,1.9,10.3L1.9,10.3z
	 M0,5.2V8c3.3,0,6,2.7,6,6h2.8C8.7,9.2,4.8,5.3,0,5.2L0,5.2z M0,0v2.8c6.1-0.1,11.2,4.8,11.3,10.9c0,0.1,0,0.2,0,0.3H14
	C13.9,6.3,7.7,0.1,0,0L0,0z"/>
</svg>
