<?xml version="1.0" encoding="utf-8"?>
<!-- Generator: Adobe Illustrator 22.0.1, SVG Export Plug-In . SVG Version: 6.00 Build 0)  -->
<svg version="1.1" id="Capa_1" xmlns="http://www.w3.org/2000/svg" xmlns:xlink="http://www.w3.org/1999/xlink" x="0px" y="0px"
	 viewBox="0 0 43 43.1" style="enable-background:new 0 0 43 43.1;" xml:space="preserve">
<style type="text/css">
	.st0{fill:none;stroke:#F3AB1F;stroke-width:3;stroke-miterlimit:10;}
</style>
<g>
	<g>
		<path class="st0" d="M40.5,30.9l-5.6-5.6c-2-2-5.4-1.2-6.2,1.4c-0.6,1.8-2.6,2.8-4.4,2.4c-4-1-9.4-6.2-10.4-10.4
			c-0.6-1.8,0.6-3.8,2.4-4.4c2.6-0.8,3.4-4.2,1.4-6.2l-5.6-5.6c-1.6-1.4-4-1.4-5.4,0L2.9,6.3c-3.8,4,0.4,14.6,9.8,24s20,13.8,24,9.8
			l3.8-3.8C41.8,34.7,41.8,32.3,40.5,30.9z"/>
	</g>
</g>
</svg>
