<?xml version="1.0" encoding="utf-8"?>
<!-- Generator: Adobe Illustrator 22.0.1, SVG Export Plug-In . SVG Version: 6.00 Build 0)  -->
<svg version="1.1" id="Capa_1" xmlns="http://www.w3.org/2000/svg" xmlns:xlink="http://www.w3.org/1999/xlink" x="0px" y="0px"
	 viewBox="0 0 98.3 98.3" style="enable-background:new 0 0 98.3 98.3;" xml:space="preserve">
<style type="text/css">
	.st0{fill:#FFFFFF;}
</style>
<g>
	<g>
		<path class="st0" d="M73.2,45.6c-4.6,2.2-8.3,8.8-12.6,4.4c-2.6-2.9-5.8-7.4-9.4-12.6c-3.9-5.6-8.9-10.3-14.7-4.9
			c-6.5,6.1-11,22.8-11.4,31.4l61.7,0C85.4,58.9,79.9,42.4,73.2,45.6z"/>
		<circle class="st0" cx="72.9" cy="28.3" r="7.6"/>
		<path class="st0" d="M96.1,11H15.8c-1.2,0-2.3,1-2.3,2.3v11.4H2.3c-1.2,0-2.3,1-2.3,2.3v58.2c0,1.2,1,2.3,2.3,2.3h80.3
			c1.2,0,2.3-1,2.3-2.3V73.7h11.3c1.2,0,2.3-1,2.3-2.3V13.3C98.3,12,97.3,11,96.1,11z M78.8,81.3H6.1V30.7h7.5v35.1
			c-1.1,4.4-1.8,8.6-2,11.7l61.7,0c-0.3-1-0.7-2.3-1.2-3.9h6.7C78.8,73.7,78.8,81.3,78.8,81.3z M92.3,67.6H19.6V17.1h72.7
			C92.3,17.1,92.3,67.6,92.3,67.6z"/>
	</g>
</g>
</svg>
