<?xml version="1.0" standalone="no"?>
<!DOCTYPE svg PUBLIC "-//W3C//DTD SVG 20010904//EN"
 "http://www.w3.org/TR/2001/REC-SVG-20010904/DTD/svg10.dtd">
<svg version="1.0" xmlns="http://www.w3.org/2000/svg"
 width="896.000000pt" height="896.000000pt" viewBox="0 0 896.000000 896.000000"
 preserveAspectRatio="xMidYMid meet">
<metadata>
Created by potrace 1.14, written by Peter Selinger 2001-2017
</metadata>
<g transform="translate(0.000000,896.000000) scale(0.100000,-0.100000)"
fill="#000000" stroke="none">
<path d="M4145 8953 c-1803 -146 -3317 -1317 -3909 -3022 -88 -252 -166 -592
-208 -906 -20 -152 -23 -211 -22 -545 0 -406 10 -535 70 -843 268 -1394 1180
-2581 2459 -3198 432 -209 886 -342 1400 -411 152 -20 211 -23 545 -22 406 0
535 10 843 70 1394 268 2581 1180 3198 2459 209 432 342 886 411 1400 20 152
23 211 22 545 0 406 -10 535 -70 843 -268 1394 -1180 2581 -2459 3198 -431
208 -890 343 -1395 410 -136 18 -223 22 -500 24 -184 1 -357 1 -385 -2z m1195
-1632 c21 -16 25 -26 23 -65 -1 -53 -35 -120 -76 -150 -27 -20 -45 -21 -275
-26 -251 -5 -282 -10 -296 -46 -3 -8 -6 -127 -6 -264 0 -217 -2 -249 -16 -254
-21 -8 -356 -6 -417 2 l-48 7 -2 262 c-1 199 -5 265 -15 275 -10 10 -80 14
-282 18 -304 6 -302 5 -349 90 -33 58 -36 149 -5 164 14 8 294 10 880 8 822
-2 860 -3 884 -21z m-447 -1072 c146 -29 349 -99 488 -168 418 -208 749 -540
958 -962 137 -276 231 -654 231 -931 l0 -48 -2112 0 -2111 0 7 123 c35 625
298 1172 741 1545 256 215 571 368 902 436 111 23 138 25 456 25 304 1 349 -1
440 -20z m2148 -3012 c224 -76 356 -250 384 -504 l7 -63 -2980 0 -2981 0 6 38
c11 79 46 189 81 257 46 87 145 188 228 232 125 66 -79 62 2679 62 l2510 0 66
-22z"/>
<path d="M4055 5940 c-591 -125 -1051 -522 -1272 -1100 -31 -82 -93 -321 -93
-360 l0 -30 1770 0 c1679 0 1770 1 1770 18 0 28 -47 213 -76 298 -71 209 -209
445 -362 619 -239 273 -604 487 -954 559 -120 25 -659 22 -783 -4z"/>
</g>
</svg>
