<svg width="48" height="48" viewBox="0 0 48 48" fill="none" xmlns="http://www.w3.org/2000/svg">
<path d="M45 30H44.25V27C44.25 26.0054 43.8549 25.0516 43.1516 24.3484C42.4484 23.6451 41.4946 23.25 40.5 23.25H39.75V13.5C39.75 12.1076 39.1969 10.7723 38.2123 9.78769C37.2277 8.80312 35.8924 8.25 34.5 8.25H13.5C12.1076 8.25 10.7723 8.80312 9.78769 9.78769C8.80312 10.7723 8.25 12.1076 8.25 13.5V23.25H7.5C6.50544 23.25 5.55161 23.6451 4.84835 24.3484C4.14509 25.0516 3.75 26.0054 3.75 27V30H3C2.80109 30 2.61032 30.079 2.46967 30.2197C2.32902 30.3603 2.25 30.5511 2.25 30.75V39C2.25 39.1989 2.32902 39.3897 2.46967 39.5303C2.61032 39.671 2.80109 39.75 3 39.75H8.4975C8.65473 39.7504 8.80812 39.7014 8.93597 39.6099C9.06383 39.5184 9.15969 39.389 9.21 39.24L9.75 37.5375C9.90559 37.0974 10.1942 36.7166 10.5758 36.4479C10.9575 36.1791 11.4132 36.0357 11.88 36.0375H36.09C36.5568 36.0357 37.0125 36.1791 37.3942 36.4479C37.7758 36.7166 38.0644 37.0974 38.22 37.5375L38.79 39.24C38.8422 39.3952 38.9437 39.5291 39.0792 39.6212C39.2146 39.7133 39.3764 39.7585 39.54 39.75H45C45.1989 39.75 45.3897 39.671 45.5303 39.5303C45.671 39.3897 45.75 39.1989 45.75 39V30.75C45.75 30.5511 45.671 30.3603 45.5303 30.2197C45.3897 30.079 45.1989 30 45 30ZM9.75 13.5C9.75 12.5054 10.1451 11.5516 10.8483 10.8483C11.5516 10.1451 12.5054 9.75 13.5 9.75H34.5C35.4946 9.75 36.4484 10.1451 37.1516 10.8483C37.8549 11.5516 38.25 12.5054 38.25 13.5V23.25H35.865C36.09 22.62 35.9625 22.3425 36 21C36 20.4033 35.7629 19.831 35.341 19.409C34.919 18.9871 34.3467 18.75 33.75 18.75H28.5C27.9033 18.75 27.331 18.9871 26.909 19.409C26.4871 19.831 26.25 20.4033 26.25 21C26.25 22.3425 26.16 22.62 26.385 23.25H21.615C21.84 22.62 21.7125 22.3425 21.75 21C21.75 20.4033 21.5129 19.831 21.091 19.409C20.669 18.9871 20.0967 18.75 19.5 18.75H14.25C13.6533 18.75 13.081 18.9871 12.659 19.409C12.2371 19.831 12 20.4033 12 21C12.0375 22.3425 11.91 22.62 12.135 23.25H9.75V13.5ZM27.75 22.5V21C27.75 20.8011 27.829 20.6103 27.9697 20.4697C28.1103 20.329 28.3011 20.25 28.5 20.25H33.75C33.9489 20.25 34.1397 20.329 34.2803 20.4697C34.421 20.6103 34.5 20.8011 34.5 21V22.5C34.5 22.6989 34.421 22.8897 34.2803 23.0303C34.1397 23.171 33.9489 23.25 33.75 23.25H28.5C28.3011 23.25 28.1103 23.171 27.9697 23.0303C27.829 22.8897 27.75 22.6989 27.75 22.5ZM13.5 22.5V21C13.5 20.8011 13.579 20.6103 13.7197 20.4697C13.8603 20.329 14.0511 20.25 14.25 20.25H19.5C19.6989 20.25 19.8897 20.329 20.0303 20.4697C20.171 20.6103 20.25 20.8011 20.25 21V22.5C20.25 22.6989 20.171 22.8897 20.0303 23.0303C19.8897 23.171 19.6989 23.25 19.5 23.25H14.25C14.0511 23.25 13.8603 23.171 13.7197 23.0303C13.579 22.8897 13.5 22.6989 13.5 22.5ZM5.25 27C5.25 26.4033 5.48705 25.831 5.90901 25.409C6.33097 24.9871 6.90326 24.75 7.5 24.75H40.5C41.0967 24.75 41.669 24.9871 42.091 25.409C42.5129 25.831 42.75 26.4033 42.75 27V30H5.25V27ZM44.25 38.25H40.0425L39.645 37.065C39.3964 36.3186 38.9193 35.6693 38.2813 35.2089C37.6433 34.7486 36.8767 34.5006 36.09 34.5H11.91C11.1233 34.5006 10.3567 34.7486 9.71866 35.2089C9.08067 35.6693 8.60361 36.3186 8.355 37.065L7.9575 38.25H3.75V31.5H44.25V38.25Z" fill="#F3AC1F"/>
</svg>
