<svg width="48" height="48" viewBox="0 0 48 48" fill="none" xmlns="http://www.w3.org/2000/svg">
<g clip-path="url(#clip0_1518_39)">
<path d="M17.2973 31.3323C17.2159 31.2768 17.1245 31.2379 17.0281 31.2177C16.9317 31.1975 16.8323 31.1966 16.7356 31.2149C16.6388 31.2331 16.5466 31.2703 16.4642 31.3243C16.3819 31.3782 16.3109 31.4478 16.2555 31.5292L10.2555 40.3305C10.2 40.4118 10.161 40.5033 10.1409 40.5997C10.1207 40.6961 10.1197 40.7956 10.138 40.8924C10.1562 40.9891 10.1934 41.0814 10.2473 41.1638C10.3012 41.2462 10.3708 41.3173 10.4522 41.3728C10.5335 41.4283 10.625 41.4673 10.7214 41.4874C10.8179 41.5076 10.9173 41.5086 11.0141 41.4903C11.1109 41.472 11.2031 41.4349 11.2855 41.381C11.368 41.3271 11.439 41.2574 11.4945 41.1761L17.4945 32.3748C17.55 32.2934 17.589 32.2019 17.6091 32.1055C17.6293 32.009 17.6302 31.9095 17.6119 31.8127C17.5936 31.7159 17.5563 31.6237 17.5024 31.5412C17.4484 31.4588 17.3787 31.3878 17.2973 31.3323ZM11.25 30.0015C10.805 30.0015 10.37 30.1334 10 30.3806C9.63 30.6278 9.34162 30.9792 9.17131 31.3903C9.001 31.8015 8.95642 32.2538 9.04321 32.6903C9.12999 33.1267 9.34425 33.5276 9.65888 33.8423C9.97351 34.157 10.3744 34.3713 10.8108 34.4582C11.2473 34.545 11.6996 34.5005 12.1108 34.3303C12.5219 34.1601 12.8733 33.8717 13.1206 33.5018C13.3679 33.1318 13.4999 32.6968 13.5 32.2518C13.4993 31.6553 13.262 31.0834 12.8402 30.6616C12.4184 30.2398 11.8465 30.0022 11.25 30.0015ZM11.25 33.0022C11.1017 33.0022 10.9567 32.9582 10.8333 32.8758C10.71 32.7934 10.6139 32.6763 10.5571 32.5392C10.5003 32.4022 10.4855 32.2514 10.5144 32.1059C10.5434 31.9604 10.6148 31.8268 10.7197 31.7219C10.8246 31.617 10.9582 31.5456 11.1037 31.5166C11.2492 31.4877 11.4 31.5025 11.537 31.5593C11.6741 31.6161 11.7912 31.7122 11.8736 31.8355C11.956 31.9589 12 32.1039 12 32.2522C11.9998 32.4511 11.9207 32.6417 11.7801 32.7823C11.6395 32.9229 11.4489 33.002 11.25 33.0022ZM15.75 39.003C15.305 39.003 14.87 39.1349 14.5 39.3821C14.13 39.6293 13.8416 39.9807 13.6713 40.3918C13.501 40.803 13.4564 41.2553 13.5432 41.6918C13.63 42.1282 13.8442 42.5291 14.1589 42.8438C14.4735 43.1585 14.8744 43.3728 15.3108 43.4597C15.7473 43.5465 16.1996 43.502 16.6108 43.3318C17.0219 43.1616 17.3733 42.8732 17.6206 42.5033C17.8679 42.1333 17.9999 41.6983 18 41.2533C17.9993 40.6568 17.762 40.0849 17.3402 39.6631C16.9184 39.2413 16.3465 39.0037 15.75 39.003ZM15.75 42.0033C15.6017 42.0033 15.4567 41.9594 15.3333 41.8769C15.21 41.7945 15.1139 41.6774 15.0571 41.5404C15.0003 41.4033 14.9855 41.2525 15.0144 41.107C15.0434 40.9615 15.1148 40.8279 15.2197 40.723C15.3246 40.6181 15.4582 40.5467 15.6037 40.5178C15.7492 40.4888 15.9 40.5037 16.037 40.5604C16.1741 40.6172 16.2912 40.7133 16.3736 40.8367C16.456 40.96 16.5 41.105 16.5 41.2533C16.4998 41.4522 16.4207 41.6428 16.2801 41.7835C16.1395 41.9241 15.9489 42.0031 15.75 42.0033Z" fill="#F3AB1F"/>
<path d="M21.105 45.8629C21.055 46.0707 20.9268 46.2512 20.7471 46.3668C20.5673 46.4824 20.3499 46.5242 20.1401 46.4835L4.32826 42.7163C4.12933 42.6612 3.95987 42.5305 3.85614 42.352C3.75241 42.1736 3.72266 41.9616 3.77326 41.7615L10.2773 15.3589C10.5954 14.3453 11.232 13.4614 12.0926 12.8385L17.0858 9.75901L17.9423 7.46851L11.3055 11.5613C10.1098 12.3937 9.23295 13.6083 8.81926 15.0053L2.31676 41.4026C2.24301 41.694 2.22761 41.9972 2.27145 42.2946C2.31529 42.5919 2.41751 42.8777 2.57222 43.1355C2.72693 43.3932 2.93108 43.6178 3.17292 43.7963C3.41476 43.9749 3.68952 44.1038 3.98138 44.1758L19.7925 47.943C20.3859 48.0635 21.0028 47.9528 21.5173 47.6336C22.0318 47.3144 22.4049 46.8107 22.5604 46.2255L23.6344 41.97L22.6553 39.7193L21.105 45.8629Z" fill="#F3AB1F"/>
<path d="M45.5602 37.1356L35.0062 12.5037C34.3792 11.2225 33.3155 10.2072 32.0066 9.64055L26.9141 7.77493C26.8573 8.28038 26.7698 8.78192 26.6523 9.2768L31.4898 11.0491C32.4094 11.4752 33.1613 12.1947 33.6273 13.0947L44.1813 37.7262C44.2668 37.9259 44.2739 38.1506 44.201 38.3553C44.1282 38.56 43.9808 38.7297 43.7883 38.8306C43.7883 38.8306 29.3171 45.6706 29.2807 45.6878C29.1963 45.726 29.1051 45.7467 29.0125 45.7486C28.9199 45.7505 28.8279 45.7336 28.742 45.699C28.6561 45.6643 28.5781 45.6126 28.5128 45.5469C28.4475 45.4812 28.3962 45.403 28.362 45.3169L17.5368 20.4342C17.183 19.4367 17.1546 18.3528 17.4558 17.3382L20.9381 8.0228C21.0079 7.83178 21.1488 7.67511 21.3314 7.58553C21.514 7.49595 21.7242 7.48037 21.918 7.54205L22.3822 7.7123C22.473 7.1983 22.5097 6.6762 22.4917 6.15455L22.434 6.13355C22.1902 6.0439 21.9325 5.99795 21.6727 5.9978C21.206 6.00066 20.7512 6.14567 20.369 6.41352C19.9868 6.68137 19.6953 7.05934 19.5333 7.49705L16.05 16.8128C15.6147 18.1926 15.6537 19.6783 16.1606 21.0334C16.1606 21.0334 26.982 45.9053 26.9865 45.9154C27.103 46.184 27.2718 46.4267 27.4831 46.6293C27.6945 46.8319 27.944 46.9904 28.2173 47.0954C28.4905 47.2005 28.782 47.2501 29.0746 47.2413C29.3672 47.2325 29.6552 47.1655 29.9216 47.0442L44.4288 40.1869C44.9725 39.9202 45.393 39.4549 45.6035 38.887C45.814 38.3192 45.7983 37.6922 45.5598 37.1356H45.5602Z" fill="#F3AB1F"/>
<path d="M18.204 5.3528C18.3534 5.48419 18.5488 5.55084 18.7473 5.53812C18.9459 5.52539 19.1312 5.43431 19.2626 5.28493C19.394 5.13555 19.4606 4.94009 19.4479 4.74156C19.4352 4.54303 19.3441 4.35769 19.1947 4.2263C19.0396 4.10006 18.9182 3.93721 18.8416 3.75241C18.765 3.56762 18.7356 3.36668 18.756 3.16768C18.7965 2.87235 18.9038 2.59012 19.0696 2.34238C19.2354 2.09465 19.4554 1.8879 19.713 1.7378C21.0716 0.922929 22.5832 2.41955 23.1922 3.32443C24.3041 4.97818 24.0941 7.50568 23.5762 9.16693C23.5136 9.36463 23.4456 9.56058 23.3722 9.75455C23.3317 9.75268 23.292 9.74856 23.2507 9.74856C22.723 9.7463 22.2112 9.92889 21.8041 10.2646C21.397 10.6004 21.1202 11.0681 21.022 11.5865C20.9237 12.105 21.0101 12.6415 21.2661 13.1029C21.5221 13.5644 21.9316 13.9216 22.4235 14.1126C22.9154 14.3036 23.4587 14.3164 23.959 14.1486C24.4594 13.9809 24.8852 13.6433 25.1625 13.1943C25.4399 12.7454 25.5513 12.2136 25.4775 11.691C25.4036 11.1685 25.1491 10.6884 24.7582 10.3339C24.8493 10.0939 24.9333 9.85393 25.008 9.61393C25.6545 7.54018 25.8435 4.5788 24.4365 2.48705C23.2057 0.657054 20.9617 -0.761571 18.9416 0.451554C18.4814 0.722707 18.0902 1.09675 17.7988 1.54436C17.5073 1.99197 17.3234 2.501 17.2616 3.03155C17.2198 3.46579 17.2837 3.90369 17.4478 4.30789C17.6118 4.7121 17.8713 5.0706 18.204 5.3528ZM23.2507 12.7489C23.1024 12.7491 22.9573 12.7052 22.8338 12.6229C22.7104 12.5406 22.6142 12.4235 22.5573 12.2865C22.5004 12.1494 22.4854 11.9986 22.5143 11.8531C22.5431 11.7075 22.6145 11.5738 22.7194 11.4689C22.8242 11.3639 22.9579 11.2924 23.1034 11.2634C23.2489 11.2344 23.3997 11.2492 23.5368 11.3059C23.6739 11.3627 23.7911 11.4588 23.8735 11.5822C23.956 11.7055 24 11.8506 24 11.9989C23.9997 12.1976 23.9207 12.3881 23.7802 12.5287C23.6398 12.6692 23.4494 12.7484 23.2507 12.7489ZM26.0737 20.2924C26.1412 20.4506 26.1466 20.6285 26.0887 20.7904C26.0612 20.8744 26.0162 20.9515 25.9565 21.0166C25.8968 21.0818 25.8239 21.1334 25.7426 21.1681C25.6624 21.2057 25.5753 21.2262 25.4868 21.2283C25.3983 21.2303 25.3103 21.2139 25.2285 21.1801C25.0633 21.1213 24.9281 20.9995 24.8523 20.8414L23.9872 19.0216C23.9451 18.9277 23.8838 18.8436 23.8074 18.7747C23.7309 18.7058 23.641 18.6536 23.5432 18.6214C23.351 18.5548 23.1406 18.5644 22.9552 18.6483C22.7699 18.7323 22.6239 18.8841 22.5472 19.0726C22.5109 19.1685 22.4954 19.2711 22.5015 19.3736C22.5076 19.476 22.5354 19.576 22.5828 19.6669L23.448 21.4868C23.5791 21.7496 23.7614 21.9836 23.9842 22.1749C24.1986 22.3603 24.4453 22.5045 24.7121 22.6002C24.9795 22.6953 25.2625 22.7388 25.5461 22.7284C25.8376 22.7189 26.1242 22.6506 26.3887 22.5278C26.659 22.4053 26.9001 22.2265 27.096 22.0036C27.2863 21.7878 27.4343 21.538 27.5321 21.2674C27.6274 21.0024 27.6723 20.7218 27.6645 20.4402C27.6579 20.1622 27.5926 19.8887 27.4728 19.6377L27.1421 18.9424C27.1039 18.8664 27.0819 18.7833 27.0775 18.6983C27.0732 18.6134 27.0866 18.5284 27.117 18.4489C27.1737 18.2887 27.2908 18.157 27.4432 18.0818C27.6125 18.0064 27.8037 17.9959 27.9802 18.0526C28.0632 18.0777 28.1398 18.1202 28.2051 18.1773C28.2704 18.2343 28.3228 18.3045 28.359 18.3833L29.2245 20.2032C29.2653 20.2957 29.3245 20.3789 29.3986 20.4477C29.4727 20.5165 29.5601 20.5695 29.6553 20.6033C29.7513 20.6374 29.8531 20.6518 29.9548 20.6457C30.0564 20.6397 30.1558 20.6133 30.2471 20.5681C30.4314 20.4733 30.5745 20.3142 30.6495 20.1211C30.6861 20.031 30.7031 19.9343 30.6995 19.8372C30.6959 19.7401 30.6717 19.6448 30.6285 19.5578L29.7633 17.7379C29.6386 17.4713 29.4553 17.2362 29.2271 17.0502C29.0037 16.8664 28.7493 16.7238 28.476 16.6291C28.204 16.5346 27.917 16.4912 27.6292 16.5008C27.3453 16.5085 27.0658 16.5736 26.8076 16.6921C26.5348 16.8139 26.2917 16.9935 26.0951 17.2186C25.909 17.4304 25.7655 17.6761 25.6725 17.9423C25.5809 18.2063 25.5394 18.4851 25.5498 18.7643C25.5586 19.0482 25.6227 19.3277 25.7385 19.5871L26.0737 20.2924ZM32.7817 24.0874C32.6243 23.7477 32.398 23.4443 32.1172 23.1964C31.8505 22.9611 31.5406 22.7797 31.2048 22.6624C30.868 22.5457 30.5121 22.4937 30.156 22.5094C29.7859 22.5243 29.422 22.609 29.0835 22.7592L25.6312 24.3454C25.5443 24.3838 25.4669 24.4409 25.4046 24.5126C25.3422 24.5843 25.2965 24.6688 25.2705 24.7602C25.2097 24.9435 25.2229 25.1433 25.3072 25.3171C25.3494 25.4052 25.4089 25.484 25.4821 25.5488C25.5554 25.6135 25.6409 25.6629 25.7336 25.6939C25.8245 25.7307 25.9219 25.7486 26.0199 25.7464C26.1179 25.7442 26.2145 25.722 26.3036 25.6812L27.4893 25.1359L28.5731 27.4163L27.3566 27.9758C27.2687 28.0131 27.1901 28.0693 27.1265 28.1405C27.0629 28.2117 27.0159 28.296 26.9887 28.3876C26.9304 28.5725 26.9461 28.7728 27.0326 28.9463C27.0762 29.0332 27.1365 29.1107 27.2101 29.1742C27.2838 29.2377 27.3692 29.2861 27.4616 29.3164C27.5517 29.3491 27.6474 29.3637 27.7432 29.3592C27.839 29.3547 27.9329 29.3312 28.0196 29.2902L31.5243 27.6796C31.8583 27.5296 32.1553 27.3081 32.3943 27.0308C32.6224 26.7671 32.7981 26.4623 32.9118 26.1327C33.0236 25.8044 33.0695 25.4572 33.0468 25.1112C33.0254 24.756 32.9354 24.4084 32.7817 24.0874ZM31.473 25.6793C31.4184 25.8335 31.3323 25.9746 31.2202 26.0937C31.104 26.2183 30.9644 26.3187 30.8092 26.3892L29.9253 26.7953L28.8416 24.5153L29.7772 24.0848C29.9281 24.0153 30.0919 23.9783 30.258 23.9761C30.4187 23.9724 30.5785 24.0006 30.7282 24.0589C30.8765 24.1182 31.0132 24.2031 31.1321 24.3098C31.2553 24.4178 31.3549 24.5501 31.4246 24.6983C31.5005 24.8536 31.5423 25.0232 31.5472 25.1959C31.552 25.3602 31.5269 25.524 31.473 25.6793ZM34.4647 28.1476C34.3699 28.1107 34.2685 28.0938 34.1668 28.0977C34.0652 28.1016 33.9654 28.1264 33.8737 28.1704L28.6425 30.5742C28.4583 30.6688 28.3152 30.8275 28.2401 31.0204C28.2037 31.1144 28.1877 31.215 28.193 31.3157C28.1983 31.4163 28.2248 31.5147 28.2708 31.6043L29.7678 34.7536C29.8094 34.8433 29.8689 34.9235 29.9427 34.9893C30.0165 35.0551 30.103 35.105 30.1968 35.1361C30.2937 35.1713 30.3967 35.1866 30.4996 35.1809C30.6025 35.1753 30.7033 35.149 30.7957 35.1034C30.888 35.0635 30.971 35.0051 31.0397 34.9318C31.1084 34.8584 31.1613 34.7717 31.1951 34.6771C31.2309 34.5859 31.2473 34.4882 31.2433 34.3904C31.2393 34.2925 31.215 34.1965 31.1718 34.1086L30.0003 31.6448L34.5348 29.5609C34.6277 29.5202 34.7109 29.4601 34.7788 29.3848C34.8468 29.3095 34.8979 29.2206 34.929 29.1241C34.9634 29.0326 34.979 28.9351 34.975 28.8374C34.971 28.7398 34.9475 28.6439 34.9057 28.5556C34.8633 28.4615 34.8024 28.3768 34.7267 28.3067C34.6509 28.2366 34.5618 28.1825 34.4647 28.1476ZM37.5217 37.6564C37.5642 37.7481 37.6245 37.8304 37.6991 37.8985C37.7738 37.9666 37.8612 38.0192 37.9564 38.0531C38.0515 38.0871 38.1525 38.1017 38.2534 38.0962C38.3543 38.0906 38.4531 38.0651 38.544 38.0209C38.6367 37.9803 38.7204 37.9214 38.79 37.8477C38.8596 37.7741 38.9136 37.6872 38.949 37.5923C38.9863 37.4992 39.0035 37.3993 38.9994 37.2992C38.9954 37.199 38.9701 37.1008 38.9253 37.0111L37.5352 34.0868C37.493 33.9928 37.4307 33.9092 37.3527 33.8418C37.2747 33.7744 37.1829 33.7249 37.0837 33.6968C36.8931 33.633 36.6855 33.6437 36.5025 33.7268L31.2712 36.1306C31.0871 36.2143 30.9436 36.3676 30.8722 36.5568C30.8007 36.746 30.8071 36.9559 30.8898 37.1404L32.28 40.0647C32.3217 40.1562 32.3817 40.2383 32.4564 40.3058C32.531 40.3733 32.6186 40.4249 32.7138 40.4573C32.8107 40.4924 32.9137 40.5076 33.0166 40.5021C33.1194 40.4965 33.2202 40.4703 33.3127 40.4251C33.4036 40.3845 33.4854 40.3261 33.5532 40.2532C33.621 40.1803 33.6733 40.0945 33.7072 40.0009C33.7446 39.9079 33.7618 39.808 33.7578 39.7078C33.7538 39.6076 33.7286 39.5094 33.684 39.4197L32.6145 37.1697L33.8625 36.5963L34.6061 38.1604C34.6725 38.2971 34.7775 38.4112 34.9082 38.4887C35.0388 38.5662 35.1894 38.6037 35.3411 38.5964C35.4929 38.5892 35.6391 38.5375 35.7618 38.4479C35.8844 38.3582 35.9781 38.2346 36.0311 38.0922C36.0678 37.9999 36.0849 37.9011 36.0814 37.8018C36.0778 37.7026 36.0537 37.6052 36.0105 37.5158L35.2665 35.9513L36.4522 35.4068L37.5217 37.6564Z" fill="#F3AB1F"/>
</g>
<defs>
<clipPath id="clip0_1518_39">
<rect width="48" height="48" fill="white"/>
</clipPath>
</defs>
</svg>
