<svg width="48" height="48" viewBox="0 0 48 48" fill="none" xmlns="http://www.w3.org/2000/svg">
<path d="M10 17H38C39.6 17 41 18.4 41 20V42C41 43.6 39.6 45 38 45H10C8.4 45 7 43.6 7 42V20C7 18.4 8.4 17 10 17Z" stroke="#F3AC1F" stroke-width="1.5" stroke-linecap="round" stroke-linejoin="round"/>
<path d="M7 27C7 27 12 29 24 29C36 29 41 27 41 27" stroke="#F3AC1F" stroke-width="1.5" stroke-linecap="round" stroke-linejoin="round"/>
<path d="M24 25C24.5523 25 25 24.5523 25 24C25 23.4477 24.5523 23 24 23C23.4477 23 23 23.4477 23 24C23 24.5523 23.4477 25 24 25Z" stroke="#F3AC1F" stroke-width="1.5" stroke-linecap="round" stroke-linejoin="round"/>
<path d="M17 35H31M17 39H31M11 16H13M35 16H37" stroke="#F3AC1F" stroke-width="1.5" stroke-linecap="round" stroke-linejoin="round"/>
<path d="M12 47C12.5523 47 13 46.5523 13 46C13 45.4477 12.5523 45 12 45C11.4477 45 11 45.4477 11 46C11 46.5523 11.4477 47 12 47Z" stroke="#F3AC1F" stroke-width="1.5" stroke-linecap="round" stroke-linejoin="round"/>
<path d="M36 47C36.5523 47 37 46.5523 37 46C37 45.4477 36.5523 45 36 45C35.4477 45 35 45.4477 35 46C35 46.5523 35.4477 47 36 47Z" stroke="#F3AC1F" stroke-width="1.5" stroke-linecap="round" stroke-linejoin="round"/>
<path d="M19 5H29M19 5V17H29V5M19 5C17.8 5 17 4.2 17 3C17 1.8 17.8 1 19 1H29C30.2 1 31 1.8 31 3C31 4.2 30.2 5 29 5" stroke="#F3AC1F" stroke-width="1.5" stroke-linecap="round" stroke-linejoin="round"/>
</svg>
