<?xml version="1.0" encoding="utf-8"?>
<!-- Generator: Adobe Illustrator 22.0.1, SVG Export Plug-In . SVG Version: 6.00 Build 0)  -->
<svg version="1.1" id="Capa_1" xmlns="http://www.w3.org/2000/svg" xmlns:xlink="http://www.w3.org/1999/xlink" x="0px" y="0px"
	 viewBox="0 0 428.2 428.2" style="enable-background:new 0 0 428.2 428.2;" xml:space="preserve">
<style type="text/css">
	.st0{fill:#7E7E7E;}
</style>
<title>Монтажная область 1</title>
<path class="st0" d="M393.8,110.2c-0.5-11.3-0.5-22-0.5-32.8c0.2-8.3-6.5-15.2-14.8-15.4c-0.2,0-0.4,0-0.5,0
	c-64,0-112.6-18.4-153.1-57.9c-6.1-5.6-15.4-5.6-21.5,0c-40.4,39.4-89.1,57.9-153.1,57.9c-8.3-0.2-15.2,6.5-15.4,14.8
	c0,0.2,0,0.4,0,0.6c0,10.8,0,21.5-0.5,32.8c-2,107.5-5.1,255,174.6,316.9l5.1,1l5.1-1C398.4,365.2,395.9,218.2,393.8,110.2z
	 M201.8,259.2c-3,2.6-6.8,4.1-10.8,4.1h-0.5c-4.2-0.1-8.1-1.9-10.8-5.1l-47.6-52.7l23-20.5l37.4,41.5l82.9-78.9l21,22.5L201.8,259.2
	z"/>
</svg>
