<?xml version="1.0" encoding="utf-8"?>
<!-- Generator: Adobe Illustrator 22.0.1, SVG Export Plug-In . SVG Version: 6.00 Build 0)  -->
<!DOCTYPE svg PUBLIC "-//W3C//DTD SVG 1.1//EN" "http://www.w3.org/Graphics/SVG/1.1/DTD/svg11.dtd" [
	<!ENTITY st0 "display:none;">
	<!ENTITY st1 "fill:#FFFFFF;">
	<!ENTITY st2 "fill:#FFFFFF;stroke:#FFFFFF;stroke-width:1.8;stroke-miterlimit:10;">
	<!ENTITY st3 "fill:none;stroke:#FFFFFF;stroke-width:4.5;stroke-miterlimit:10;">
	<!ENTITY st4 "font-family:'ArialMT';">
	<!ENTITY st5 "font-size:12px;">
	<!ENTITY st6 "enable-background:new    ;">
]>
<svg version="1.1" id="Слой_1" xmlns="http://www.w3.org/2000/svg" xmlns:xlink="http://www.w3.org/1999/xlink" x="0px" y="0px"
	 viewBox="0 0 695.7 51.5" style="enable-background:new 0 0 695.7 51.5;" xml:space="preserve">
<rect x="-23.9" y="-5.9" style="&st0;" width="745.3" height="135.4"/>
<g>
	<path style="&st1;" d="M58,45H6.2c-2.7,0-5,1.8-5.8,4.4C0.2,50,0,50.7,0,51.5h3.2H64C64.1,47.6,61.3,45,58,45z"/>
	<path style="&st2;" d="M34.9,10.1c-0.1-0.2-0.1-2.3-0.1-2.3V5.7c0,0-0.1-1,0.2-1.3s1.3-0.3,1.3-0.3h3.8c0.9,0,1.6-0.5,1.8-2
		c0-0.3,0-0.5-0.3-0.7c-0.2-0.2-0.9-0.2-0.9-0.2H23.4c0,0-0.7-0.1-0.9,0.1c-0.3,0.3-0.2,0.5-0.2,0.8c0.2,1.4,0.9,2,1.8,2h4.3
		c0,0,0.7,0,1,0.2c0.2,0.2,0.2,1,0.2,1v2.3c0,0,0,2.3-0.1,2.4C29.3,10.3,35.2,10.3,34.9,10.1z"/>
	<path style="&st3;" d="M35.4,12.7c-0.3,0-6.2,0-6.5,0c-11.3,1.4-19.5,10.8-19.5,23h45.4C54.8,23.6,46.1,14.2,35.4,12.7z"/>
</g>
<text transform="matrix(1 0 0 1 84.8487 18.7078)" style="&st1; &st4; &st5;"> </text>
<g style="&st6;">
	<path style="&st1;" d="M118.1,10.4c-3.3-3.5-7.9-5.7-13.9-5.7c-12.6,0-20.1,9.9-20.1,21.1s7.5,21.1,20.1,21.1c5,0,9.9-1.4,13.5-3.4
		V27.1H106v-4.6h16.6v23.9c-5.5,3.2-12.6,5-18.5,5c-14.6,0-25.5-10.8-25.5-25.7S89.5,0,104.1,0c7.7,0,13.3,2.2,17.7,6.6L118.1,10.4z
		"/>
	<path style="&st1;" d="M157.4,50.3c-0.2-1.7-0.2-3.5-0.2-5.2h-0.1c-2,3.5-6.6,6-10.8,6c-8.2,0-12.1-4.6-12.1-12.6V18h4.6v17.9
		c0,7.2,2,11.1,8.8,11.1c1,0,9.8-0.6,9.8-12.4V18h4.6v25.2c0,1.7,0.2,4.8,0.3,7.1H157.4z"/>
	<path style="&st1;" d="M175.6,35.4c0.6,6.5,5.5,11.6,11.9,11.6c4.8,0,8.6-2.7,10.4-5.6l3.5,2.9c-3.8,4.8-8.6,6.8-13.9,6.8
		c-9.6,0-16.7-7.2-16.7-17c0-9.7,7.1-17,16.3-17c9.8,0.1,15.5,7.3,15.5,16.1v2.1L175.6,35.4L175.6,35.4z M197.5,31.7
		c0-6.1-3.9-10.4-10.5-10.4c-5.9,0-11.3,5-11.3,10.4H197.5z"/>
	<path style="&st1;" d="M227.9,25.7c-1.4-2.6-3.7-4.3-7-4.3c-3.2,0-6.7,1.4-6.7,4.8c0,3,2.1,4.1,6.3,5.1l4.6,1.1
		c4.5,1,7.9,4.3,7.9,8.8c0,7-6.3,9.9-12.6,9.9c-4.9,0-9.4-1.7-12.4-6.3l3.9-2.7c1.9,2.9,4.7,4.8,8.5,4.8c3.7,0,7.6-1.7,7.6-5.4
		c0-3.2-2.8-4.3-6.1-5.2l-4.4-1c-2.2-0.6-8.3-2.3-8.3-8.5c0-6.7,5.9-9.7,11.9-9.7c4.5,0,8.7,1.6,10.8,5.8L227.9,25.7z"/>
	<path style="&st1;" d="M256.9,22.2h-9.3v19c0,4.8,1.9,5.8,4.7,5.8c1.6,0,3.3-0.5,4.7-1.2l0.2,4.2c-1.7,0.8-3.9,1.2-6.1,1.2
		c-3.5,0-8-1.5-8-8.6V22.2h-6.8v-4.1h6.8V9h4.6v9.1h9.3v4.1H256.9z"/>
	<path style="&st1;" d="M288.9,50.3h-5V1.4h15c9.9,0,16.1,4.3,16.1,13c0,6.8-4.5,11.9-12.5,12.6l14.1,23.2h-6.1l-13.4-22.7h-8.3
		L288.9,50.3L288.9,50.3z M288.9,23.1h8.8c8.9,0,11.9-3.9,11.9-8.6s-3-8.5-11.9-8.5h-8.8V23.1z"/>
	<path style="&st1;" d="M326.4,35.4c0.6,6.5,5.5,11.6,11.9,11.6c4.8,0,8.6-2.7,10.4-5.6l3.5,2.9c-3.8,4.8-8.6,6.8-13.9,6.8
		c-9.6,0-16.7-7.2-16.7-17c0-9.7,7.1-17,16.3-17c9.8,0.1,15.5,7.3,15.5,16.1v2.1L326.4,35.4L326.4,35.4z M348.3,31.7
		c0-6.1-3.9-10.4-10.5-10.4c-5.9,0-11.3,5-11.3,10.4H348.3z"/>
	<path style="&st1;" d="M378.7,25.7c-1.4-2.6-3.7-4.3-7-4.3c-3.2,0-6.7,1.4-6.7,4.8c0,3,2.1,4.1,6.3,5.1l4.6,1.1
		c4.5,1,7.9,4.3,7.9,8.8c0,7-6.3,9.9-12.6,9.9c-4.9,0-9.4-1.7-12.4-6.3l3.9-2.7c1.9,2.9,4.7,4.8,8.5,4.8c3.7,0,7.6-1.7,7.6-5.4
		c0-3.2-2.8-4.3-6.1-5.2l-4.4-1c-2.2-0.6-8.3-2.3-8.3-8.5c0-6.7,5.9-9.7,11.9-9.7c4.5,0,8.7,1.6,10.8,5.8L378.7,25.7z"/>
	<path style="&st1;" d="M394.1,35.4c0.6,6.5,5.5,11.6,11.9,11.6c4.8,0,8.6-2.7,10.4-5.6l3.5,2.9c-3.8,4.8-8.6,6.8-13.9,6.8
		c-9.6,0-16.7-7.2-16.7-17c0-9.7,7.1-17,16.3-17c9.8,0.1,15.5,7.3,15.5,16.1v2.1L394.1,35.4L394.1,35.4z M416.1,31.7
		c0-6.1-3.9-10.4-10.5-10.4c-5.9,0-11.3,5-11.3,10.4H416.1z"/>
	<path style="&st1;" d="M429.8,28.1c0-2.9-0.1-5.4-0.3-10.1h4.5v6h0.1c1.3-3.5,4.7-6.8,10.4-6.8c1.3,0,2.4,0.1,3.4,0.4l-0.9,4.5
		c-0.6-0.2-1.4-0.3-2.6-0.3c-6.9,0-10,6-10,10.4v18.2h-4.6V28.1L429.8,28.1z"/>
	<path style="&st1;" d="M466.4,50.3h-5.1L448.2,18h5.5L464,45.2h0.1L474.4,18h5.2L466.4,50.3z"/>
	<path style="&st1;" d="M506.2,30.5v-0.8c0-5.6-2.7-8.3-8.3-8.3c-3.8,0-7.1,1.3-9.9,3.8l-2.8-3.2c3-3,7.6-4.7,13.7-4.7
		c6.3,0,11.8,3.6,11.8,11.5v14.4c0,2.5,0.3,5.5,0.6,7.2h-4.4c-0.3-1.6-0.4-3.5-0.4-5.2h-0.1c-2.6,4.3-6.2,6.1-11.4,6.1
		c-5.7,0-11.1-3.2-11.1-9.5c0-10.5,12.4-11.2,20.1-11.2L506.2,30.5L506.2,30.5L506.2,30.5z M503.8,34.3c-4.6,0-15,0.3-15,6.8
		c0,4.3,3.9,5.9,7.6,5.9c6.6,0,9.8-4.7,9.8-10.4v-2.3C506.2,34.3,503.8,34.3,503.8,34.3z"/>
	<path style="&st1;" d="M538.9,20.9h-9.7v19.9c0,5,1.9,6,4.9,6c1.7,0,3.5-0.5,4.9-1.3l0.2,4.4c-1.7,0.8-4,1.2-6.4,1.2
		c-3.6,0-8.4-1.6-8.4-9V20.9h-7.1v-4.3h7.1V7.1h4.8v9.5h9.7V20.9z"/>
	<path style="&st1;" d="M548.8,7.1c-1.7,0-3.5-1.4-3.5-3.5c0-2,1.7-3.5,3.5-3.5s3.5,1.4,3.5,3.5S550.6,7.1,548.8,7.1z M551.2,50.3
		h-4.8V16.6h4.8V50.3z"/>
	<path style="&st1;" d="M578.8,51.2c-10.4,0-17.9-7.6-17.9-17.7c0-10.2,7.4-17.7,17.9-17.7s17.9,7.6,17.9,17.7
		S589.3,51.2,578.8,51.2z M578.8,20.1c-7.8,0-12.7,5.8-12.7,13.4s4.9,13.4,12.7,13.4s12.7-5.8,12.7-13.4S586.6,20.1,578.8,20.1z"/>
	<path style="&st1;" d="M609.9,16.6c0.2,1.8,0.2,3.6,0.2,5.4h0.1c2.1-3.7,6.8-6.3,11.3-6.3c8.6,0,12.7,4.8,12.7,13.2v21.4h-4.8V31.7
		c0-7.5-2.1-11.6-9.1-11.6c-1,0-10.2,0.6-10.2,13v17.3h-4.8V24.1c0-1.8-0.2-5-0.4-7.4L609.9,16.6L609.9,16.6z"/>
	<path style="&st1;" d="M663.3,24.6c-1.4-2.7-3.8-4.5-7.3-4.5c-3.3,0-7,1.4-7,5c0,3.2,2.2,4.3,6.6,5.3l4.8,1.2
		c4.7,1.1,8.2,4.5,8.2,9.2c0,7.3-6.6,10.4-13.1,10.4c-5.1,0-9.8-1.8-13-6.6l4.1-2.8c1.9,3,4.9,5,8.9,5c3.9,0,7.9-1.7,7.9-5.6
		c0-3.4-2.9-4.5-6.4-5.4l-4.6-1.1c-2.3-0.6-8.6-2.4-8.6-8.9c0-7,6.1-10.2,12.5-10.2c4.7,0,9.1,1.7,11.2,6L663.3,24.6z"/>
</g>
</svg>
