<svg id="icon" xmlns="http://www.w3.org/2000/svg" width="124" height="124" viewBox="0 0 65.102 65.102">
  <metadata><?xpacket begin="﻿" id="W5M0MpCehiHzreSzNTczkc9d"?>
<x:xmpmeta xmlns:x="adobe:ns:meta/" x:xmptk="Adobe XMP Core 5.6-c142 79.160924, 2017/07/13-01:06:39        ">
   <rdf:RDF xmlns:rdf="http://www.w3.org/1999/02/22-rdf-syntax-ns#">
      <rdf:Description rdf:about=""/>
   </rdf:RDF>
</x:xmpmeta>
                                                                                                    
                                                                                                    
                                                                                                    
                                                                                                    
                                                                                                    
                                                                                                    
                                                                                                    
                                                                                                    
                                                                                                    
                                                                                                    
                                                                                                    
                                                                                                    
                                                                                                    
                                                                                                    
                                                                                                    
                                                                                                    
                                                                                                    
                                                                                                    
                                                                                                    
                                                                                                    
                           
<?xpacket end="w"?></metadata>
<defs>
    <style>
      .cls-1 {
        fill: #fff;
      }

      .cls-1, .cls-2 {
        stroke: #f3ab1f;
        stroke-width: 2px;
      }

      .cls-2 {
        fill: #f3ab1f;
        fill-rule: evenodd;
      }
    </style>
  </defs>
  <rect id="Rounded_Rectangle_15" data-name="Rounded Rectangle 15" class="cls-1" x="1.051" y="2.551" width="57" height="55" rx="10" ry="10"/>
  <rect id="Rounded_Rectangle_13" data-name="Rounded Rectangle 13" class="cls-1" x="8.051" y="9.551" width="44" height="14" rx="5" ry="5"/>
  <g>
    <rect id="Rounded_Rectangle_14" data-name="Rounded Rectangle 14" class="cls-1" x="10.051" y="26.551" width="11" height="6" rx="2" ry="2"/>
    <rect id="Rounded_Rectangle_14_copy" data-name="Rounded Rectangle 14 copy" class="cls-1" x="24.051" y="26.551" width="11" height="6" rx="2" ry="2"/>
    <rect id="Rounded_Rectangle_14_copy_2" data-name="Rounded Rectangle 14 copy 2" class="cls-1" x="38.051" y="26.551" width="11" height="6" rx="2" ry="2"/>
  </g>
  <g id="Group_10_copy" data-name="Group 10 copy">
    <rect id="Rounded_Rectangle_14-2" data-name="Rounded Rectangle 14" class="cls-1" x="10.051" y="35.551" width="11" height="6" rx="2" ry="2"/>
    <rect id="Rounded_Rectangle_14_copy-2" data-name="Rounded Rectangle 14 copy" class="cls-1" x="24.051" y="35.551" width="11" height="6" rx="2" ry="2"/>
    <rect id="Rounded_Rectangle_14_copy_2-2" data-name="Rounded Rectangle 14 copy 2" class="cls-1" x="38.051" y="35.551" width="11" height="6" rx="2" ry="2"/>
  </g>
  <g id="Group_10_copy_2" data-name="Group 10 copy 2">
    <rect id="Rounded_Rectangle_14-3" data-name="Rounded Rectangle 14" class="cls-1" x="10.051" y="44.551" width="11" height="6" rx="2" ry="2"/>
    <rect id="Rounded_Rectangle_14_copy-3" data-name="Rounded Rectangle 14 copy" class="cls-1" x="24.051" y="44.551" width="11" height="6" rx="2" ry="2"/>
    <rect id="Rounded_Rectangle_14_copy_2-3" data-name="Rounded Rectangle 14 copy 2" class="cls-1" x="38.051" y="44.551" width="11" height="6" rx="2" ry="2"/>
  </g>
  <g id="icon-2" data-name="icon">
    <circle class="cls-1" cx="54.051" cy="52.551" r="10"/>
    <path id="Rounded_Rectangle_16" data-name="Rounded Rectangle 16" class="cls-2" d="M1058.5,1134a1.5,1.5,0,1,1-1.5,1.5A1.5,1.5,0,0,1,1058.5,1134Zm7,4a1.5,1.5,0,1,1-1.5,1.5A1.5,1.5,0,0,1,1065.5,1138Zm-1.25-4.4a1.01,1.01,0,0,1,.37,1.37l-3.5,6.06a1,1,0,1,1-1.74-1l3.5-6.06A1.01,1.01,0,0,1,1064.25,1133.6Z" transform="translate(-1007.949 -1085.449)"/>
  </g>
</svg>
