<svg xmlns="http://www.w3.org/2000/svg" width="119.996" height="119.996" viewBox="0 0 57 57">
  <metadata><?xpacket begin="﻿" id="W5M0MpCehiHzreSzNTczkc9d"?>
<x:xmpmeta xmlns:x="adobe:ns:meta/" x:xmptk="Adobe XMP Core 5.6-c142 79.160924, 2017/07/13-01:06:39        ">
   <rdf:RDF xmlns:rdf="http://www.w3.org/1999/02/22-rdf-syntax-ns#">
      <rdf:Description rdf:about=""/>
   </rdf:RDF>
</x:xmpmeta>
                                                                                                    
                                                                                                    
                                                                                                    
                                                                                                    
                                                                                                    
                                                                                                    
                                                                                                    
                                                                                                    
                                                                                                    
                                                                                                    
                                                                                                    
                                                                                                    
                                                                                                    
                                                                                                    
                                                                                                    
                                                                                                    
                                                                                                    
                                                                                                    
                                                                                                    
                                                                                                    
                           
<?xpacket end="w"?></metadata>
<defs>
    <style>
      .cls-1 {
        fill: #f3ab1f;
        fill-rule: evenodd;
      }
    </style>
  </defs>
  <path id="icon" class="cls-1" d="M1037.51,1207a28.5,28.5,0,1,0,28.49,28.49h0A28.534,28.534,0,0,0,1037.51,1207Zm24.92,20.24h-1.75a3.381,3.381,0,0,0-1.56.37l-0.64.32a1.281,1.281,0,0,1-1.27-.08l-2.43-1.62a1.132,1.132,0,0,0-.62-0.19h-0.29l0.82-1.24a0.242,0.242,0,0,1,.19-0.1h1.73v0.49a1.119,1.119,0,0,0,2.22.2l0.4,0.2a2.959,2.959,0,0,0,1.3.31h1.41c0.18,0.44.34,0.89,0.49,1.34h0Zm-8.34-10.3a0.055,0.055,0,0,1,.03-0.05l0.84-.84c0.03-.03.05-0.06,0.08-0.09,0.49,0.44.96,0.9,1.42,1.38l-0.7.7a1.118,1.118,0,0,0,1.58,1.58l0.6-.6a26.17,26.17,0,0,1,3,4.65h-0.4a0.735,0.735,0,0,1-.3-0.07l-1.72-.86a2.344,2.344,0,0,0-1.1-.26h-2.54a2.424,2.424,0,0,0-2.04,1.09l-1.66,2.48h-1.03a0.817,0.817,0,0,1-.82-0.82v-1.96a0.079,0.079,0,0,1,.05-0.08l2.18-.72a3.709,3.709,0,0,0,2.53-3.51v-2.01h0v-0.01Zm-34.12-.98a0.647,0.647,0,0,1,.08.09l1.19,1.19a1.129,1.129,0,0,0,1.58,0l1.68-1.68a1.223,1.223,0,0,1,.9-0.37h1.47v0.07a1.116,1.116,0,0,0,1.11,1.12,1.055,1.055,0,0,0,.5-0.12l1.95-.98a0.99,0.99,0,0,1,.42-0.09h3.98a1.918,1.918,0,0,0,0,3.19l1.54,1.03a0.06,0.06,0,0,1,.03.06v0.55a0.1,0.1,0,0,1-.08.08h-0.51a2.746,2.746,0,0,0-1.95.8l-7.5,7.51a0.106,0.106,0,0,1-.05.02h-1.9a3.51,3.51,0,0,0-3.5,3.5v0.54l-1.23-.25a0.962,0.962,0,0,1-.68-0.51l-0.73-1.47a1.122,1.122,0,0,0-1-.62h-0.66a1.262,1.262,0,0,1-1.2-.86l-1.56-4.67a26.515,26.515,0,0,1,6.12-8.13h0Zm17.54,45.79a26.277,26.277,0,0,1-24.95-34.47l0.73,2.18a3.494,3.494,0,0,0,3.29,2.39l0.43,0.85a3.163,3.163,0,0,0,2.23,1.71l4.26,0.85a1.185,1.185,0,0,1,.63.34,3.613,3.613,0,0,0,1.19.78l-0.77,2.33a1.133,1.133,0,0,0-.06.36v2.38a3.486,3.486,0,0,0,1.4,2.79l2.85,2.14a1.279,1.279,0,0,1,.51,1.02v6.42a3.459,3.459,0,0,0,.59,1.94l1.71,2.57a1.987,1.987,0,0,0,1.67.89h0.42a1.408,1.408,0,0,0,1.41-1.41v-2.04a1.838,1.838,0,0,1,.55-1.31l2.2-2.21a4.032,4.032,0,0,0,.99-1.6l0.69-2.09a0.075,0.075,0,0,1,.07-0.05h0.6a2.3,2.3,0,0,0,2.23-1.74l0.8-3.21a2.3,2.3,0,0,0-.6-2.19l-1.56-1.56a2.267,2.267,0,0,0-1.63-.67h-1.42l-4.09-4.09a2.276,2.276,0,0,0-1.63-.68h-5.68a1.243,1.243,0,0,1-.87-0.36,3.437,3.437,0,0,0-1.77-.94l-0.78-.16v-0.99a1.272,1.272,0,0,1,1.27-1.27h1.27v0.08a1.116,1.116,0,0,0,2.23,0V1230l0.02-.02,7.51-7.51a0.491,0.491,0,0,1,.36-0.15h0.52a2.317,2.317,0,0,0,2.31-2.31v-0.56a2.289,2.289,0,0,0-1.03-1.91l-0.94-.63,1.81-.45a1.788,1.788,0,0,0-.44-3.52h-7.18a3.279,3.279,0,0,0-1.41.33l-0.74.37a1.869,1.869,0,0,0-1.46-.7h-1.84a3.5,3.5,0,0,0-2.47,1.03l-0.89.89-0.34-.33a26.191,26.191,0,0,1,31.62,0l-0.78.77a2.308,2.308,0,0,0-.67,1.63v2.01a1.447,1.447,0,0,1-1.01,1.39l-2.18.73a2.313,2.313,0,0,0-1.58,2.19v1.96a2.955,2.955,0,0,0,.43,1.54,4.342,4.342,0,0,0-1.17,1.17l-1.05,1.58a3.514,3.514,0,0,0-.59,1.94v2.13a3.539,3.539,0,0,0,.59,1.94l1.27,1.91a3.508,3.508,0,0,0,2.91,1.56h2.96a1.236,1.236,0,0,1,1.2.86l0.27,0.8a6.44,6.44,0,0,1,.32,2v0.84a12.211,12.211,0,0,0,.46,3.29l1.92,6.7a26.163,26.163,0,0,1-19.12,8.28h0Zm-7.43-17.15-2.86-2.14a1.294,1.294,0,0,1-.5-1.01v-2.2l0.88-2.64h4.65a0.076,0.076,0,0,1,.05.02l4.42,4.41a1.112,1.112,0,0,0,.79.33h1.88a0.142,0.142,0,0,1,.06.02l1.55,1.56a0.062,0.062,0,0,1,.02.07l-0.8,3.2a0.073,0.073,0,0,1-.07.06h-0.6a2.3,2.3,0,0,0-2.18,1.58l-0.7,2.09a1.859,1.859,0,0,1-.45.73l-2.2,2.2a4.071,4.071,0,0,0-1.2,2.89v0.44l-1.12-1.69a1.26,1.26,0,0,1-.22-0.7v-6.43a3.486,3.486,0,0,0-1.4-2.79h0Zm26.77,1.57a9.7,9.7,0,0,1-.38-2.68v-0.84a8.523,8.523,0,0,0-.43-2.7l-0.27-.8a3.486,3.486,0,0,0-3.32-2.39h-2.96a1.26,1.26,0,0,1-1.05-.56l-1.27-1.91a1.282,1.282,0,0,1-.21-0.71v-2.12a1.25,1.25,0,0,1,.21-0.7l1.05-1.58a2.007,2.007,0,0,1,1.67-.9h3.94l2.14,1.43a3.5,3.5,0,0,0,3.51.22l0.64-.32a1.222,1.222,0,0,1,.56-0.14h2.39a26.257,26.257,0,0,1-4.71,21.98Zm-24.3-29.03a1.121,1.121,0,0,0-1.5-.5h0l-2.38,1.19a1.118,1.118,0,1,0,1,2h0l2.38-1.19a1.116,1.116,0,0,0,.5-1.5h0Zm16.86-1.81a1.118,1.118,0,0,0-1.12,1.12h0v1.19a1.115,1.115,0,1,0,2.23,0v-1.19a1.11,1.11,0,0,0-1.11-1.12h0Z" transform="translate(-1009 -1207)"/>
</svg>
