<?xml version="1.0" encoding="utf-8"?>
<!-- Generator: Adobe Illustrator 22.0.1, SVG Export Plug-In . SVG Version: 6.00 Build 0)  -->
<svg version="1.1" id="Layer_2" xmlns="http://www.w3.org/2000/svg" xmlns:xlink="http://www.w3.org/1999/xlink" x="0px" y="0px"
	 viewBox="0 0 440 135" style="enable-background:new 0 0 440 135;" xml:space="preserve">
<style type="text/css">
	.st0{fill:url(#SVGID_1_);}
</style>
<g>
	<path d="M74.1,50.9c0-1.5,1.3-2.8,2.7-2.8H95c6,0,10.8,1.8,13.8,4.9c2.4,2.4,3.8,5.8,3.8,9.6v0.1c0,8-5.4,12.6-13,14.1l12.1,15.6
		c0.6,0.6,0.9,1.3,0.9,2c0,1.5-1.4,2.7-2.8,2.7c-1.1,0-1.9-0.6-2.6-1.5L93.5,77.9h-14v16.5c0,1.5-1.3,2.8-2.8,2.8
		c-1.5,0-2.7-1.3-2.7-2.8L74.1,50.9L74.1,50.9z M94.5,72.9c7.3,0,12.5-3.8,12.5-10v-0.1c0-6-4.6-9.6-12.4-9.6h-15v19.7
		C79.6,72.9,94.5,72.9,94.5,72.9z"/>
	<path d="M123.6,94V50.9c0-1.5,1.3-2.8,2.7-2.8h30.2c1.4,0,2.5,1.1,2.5,2.5s-1.1,2.5-2.5,2.5h-27.4v16.6h24.3c1.4,0,2.5,1.2,2.5,2.5
		c0,1.4-1.1,2.5-2.5,2.5h-24.3v17h27.8c1.4,0,2.5,1.1,2.5,2.5s-1.1,2.5-2.5,2.5h-30.6C124.9,96.8,123.6,95.5,123.6,94z"/>
	<path d="M185.1,95l-18.8-43.3c-0.2-0.4-0.3-0.8-0.3-1.3c0-1.4,1.3-2.7,2.8-2.7c1.4,0,2.4,0.9,2.8,2.1l16.8,40.3l16.9-40.4
		c0.5-1,1.5-1.9,2.7-1.9c1.5,0,2.7,1.3,2.7,2.6c0,0.4-0.1,0.8-0.2,1.1L191.8,95c-0.6,1.4-1.6,2.3-3.2,2.3h-0.3
		C186.7,97.3,185.7,96.4,185.1,95z"/>
	<path d="M221,50.5c0-1.5,1.3-2.8,2.7-2.8c1.5,0,2.8,1.3,2.8,2.8v43.8c0,1.5-1.3,2.8-2.8,2.8c-1.5,0-2.7-1.3-2.7-2.8V50.5z"/>
	<path d="M240,94V50.9c0-1.5,1.3-2.8,2.7-2.8h30.2c1.4,0,2.5,1.1,2.5,2.5s-1.1,2.5-2.5,2.5h-27.4v16.6h24.3c1.4,0,2.5,1.2,2.5,2.5
		c0,1.4-1.1,2.5-2.5,2.5h-24.3v17h27.8c1.4,0,2.5,1.1,2.5,2.5s-1.1,2.5-2.5,2.5h-30.6C241.3,96.8,240,95.5,240,94z"/>
	<path d="M282.9,51.8c-0.1-0.4-0.3-0.8-0.3-1.3c0-1.5,1.3-2.8,2.8-2.8c1.4,0,2.4,1,2.8,2.3l13.4,38.6l12.7-38.8
		c0.4-1.3,1.3-2.2,2.7-2.2h0.3c1.4,0,2.3,0.9,2.7,2.2L333,88.7l13.5-38.8c0.4-1.3,1.3-2.2,2.6-2.2c1.5,0,2.8,1.3,2.8,2.7
		c0,0.4-0.2,0.9-0.3,1.3L336,95c-0.5,1.4-1.5,2.4-2.8,2.4h-0.4c-1.4,0-2.4-1-2.8-2.4l-12.6-37.4L304.6,95c-0.5,1.4-1.5,2.4-2.8,2.4
		h-0.4c-1.4,0-2.4-0.9-2.8-2.4L282.9,51.8z"/>
	<path d="M358.7,90.9c-0.6-0.4-1-1.2-1-2.1c0-1.5,1.2-2.7,2.6-2.7c0.7,0,1.3,0.3,1.7,0.6c4.6,3.9,9.2,5.8,15.4,5.8
		c6.5,0,10.8-3.5,10.8-8.3v-0.1c0-4.5-2.4-7.1-12.6-9.2c-11.2-2.4-16.3-6-16.3-14v-0.1c0-7.6,6.7-13.3,16-13.3
		c6.4,0,11,1.6,15.5,4.8c0.6,0.4,1.2,1.2,1.2,2.2c0,1.5-1.2,2.6-2.6,2.6c-0.6,0-1.1-0.1-1.6-0.5c-4.1-3-8.1-4.2-12.6-4.2
		c-6.3,0-10.4,3.5-10.4,7.9v0.1c0,4.6,2.5,7.2,13.2,9.5c10.8,2.4,15.8,6.3,15.8,13.8v0.1c0,8.3-6.9,13.8-16.6,13.8
		C370.1,97.5,364.2,95.2,358.7,90.9z"/>
</g>
<g>
	<path d="M402,91.3c1,0,1.8,0.8,1.8,1.8v0.8c0,1.1-0.8,1.9-1.8,1.9c-1.1,0-1.9-0.8-1.9-1.9v-0.8C400.1,92,400.9,91.3,402,91.3z"/>
	<path d="M410.1,69.1c0-1,0.8-1.6,1.7-1.6c1,0,1.8,0.6,1.8,1.6v0.5c0,0.9-0.8,1.6-1.8,1.6c-1,0-1.7-0.7-1.7-1.6V69.1z M410.3,76.8
		c0-0.8,0.7-1.5,1.5-1.5c0.9,0,1.5,0.7,1.5,1.5v17.4c0,0.9-0.6,1.5-1.5,1.5c-0.9,0-1.5-0.7-1.5-1.5V76.8z"/>
	<path d="M419.1,85.6L419.1,85.6c0-5.8,4.4-10.6,10.5-10.6c6,0,10.5,4.7,10.5,10.4v0.1c0,5.7-4.5,10.5-10.5,10.5
		C423.4,96,419.1,91.3,419.1,85.6z M436.9,85.6L436.9,85.6c0-4.4-3.2-7.9-7.5-7.9c-4.4,0-7.3,3.5-7.3,7.8v0.1c0,4.3,3.2,7.8,7.4,7.8
		C433.9,93.3,436.9,89.8,436.9,85.6z"/>
</g>
<linearGradient id="SVGID_1_" gradientUnits="userSpaceOnUse" x1="30.2073" y1="-66.4665" x2="30.2073" y2="-6.052" gradientTransform="matrix(1 0 0 -1 0 36.333)">
	<stop  offset="0" style="stop-color:#33C886"/>
	<stop  offset="1" style="stop-color:#12CF6C"/>
</linearGradient>
<path class="st0" d="M30.2,42.4C13.5,42.4,0,55.9,0,72.6c0,16.7,13.5,30.2,30.2,30.2s30.2-13.5,30.2-30.2
	C60.4,55.9,46.9,42.4,30.2,42.4z M44.4,93.7L30.2,82.8L16.1,93.7l5.5-17.4l-14-10.5h17l5.6-17l5.7,17h17l-14,10.5L44.4,93.7z"/>
</svg>
