<?xml version="1.0" encoding="utf-8"?>
<!-- Generator: Adobe Illustrator 21.0.2, SVG Export Plug-In . SVG Version: 6.00 Build 0)  -->
<!DOCTYPE svg PUBLIC "-//W3C//DTD SVG 1.1//EN" "http://www.w3.org/Graphics/SVG/1.1/DTD/svg11.dtd" [
	<!ENTITY st0 "fill:#FFFFFF;">
]>
<svg version="1.1" id="Capa_1" xmlns="http://www.w3.org/2000/svg" xmlns:xlink="http://www.w3.org/1999/xlink" x="0px" y="0px"
	 viewBox="0 0 430.1 430.1" style="enable-background:new 0 0 430.1 430.1;" xml:space="preserve">
<g>
	<path style="&st0;" d="M418,12.6C406.9,1.5,393.7-4,378.3-4h-326C36.8-4,23.6,1.5,12.6,12.6C1.5,23.6-4,36.8-4,52.2v326
		c0,15.4,5.5,28.6,16.6,39.7c11,11,24.3,16.6,39.7,16.6h326c15.4,0,28.6-5.5,39.7-16.6c11-11,16.6-24.3,16.6-39.7v-326
		C434.5,36.8,429,23.6,418,12.6z M153.5,154c17.2-16.7,37.9-25,62.1-25c24.4,0,45.2,8.3,62.4,25c17.2,16.7,25.8,36.8,25.8,60.4
		s-8.6,43.7-25.8,60.4c-17.2,16.7-38,25-62.4,25c-24.2,0-44.9-8.3-62.1-25s-25.8-36.8-25.8-60.4C127.6,190.8,136.2,170.7,153.5,154z
		 M384.9,366.6c0,4.9-1.7,9.1-5.1,12.4s-7.5,5-12.3,5H62.2c-4.9,0-9.1-1.7-12.4-5c-3.3-3.3-5-7.5-5-12.4v-185h40.3
		c-3.8,12-5.7,24.5-5.7,37.4c0,36.6,13.3,67.7,40,93.5c26.6,25.8,58.7,38.7,96.2,38.7c24.7,0,47.6-5.9,68.5-17.7
		c20.9-11.8,37.5-27.8,49.7-48.1C345.9,265.1,352,243,352,219c0-12.9-1.9-25.4-5.7-37.4h38.5L384.9,366.6L384.9,366.6L384.9,366.6z
		 M384.9,111.6c0,5.5-1.9,10.2-5.7,14c-3.8,3.8-8.5,5.7-14,5.7h-49.7c-5.5,0-10.2-1.9-14-5.7s-5.7-8.5-5.7-14V64.5
		c0-5.3,1.9-9.9,5.7-13.8c3.8-3.9,8.5-5.9,14-5.9h49.7c5.5,0,10.2,2,14,5.9s5.7,8.5,5.7,13.8V111.6z"/>
</g>
</svg>
