<?xml version="1.0" encoding="utf-8"?>
<!-- Generator: Adobe Illustrator 21.0.2, SVG Export Plug-In . SVG Version: 6.00 Build 0)  -->
<!DOCTYPE svg PUBLIC "-//W3C//DTD SVG 1.1//EN" "http://www.w3.org/Graphics/SVG/1.1/DTD/svg11.dtd" [
	<!ENTITY st0 "fill:#FFFFFF;">
]>
<svg version="1.1" id="Capa_1" xmlns="http://www.w3.org/2000/svg" xmlns:xlink="http://www.w3.org/1999/xlink" x="0px" y="0px"
	 viewBox="0 0 430.1 430.1" style="enable-background:new 0 0 430.1 430.1;" xml:space="preserve">
<g>
	<g>
		<path style="&st0;" d="M423,85.8c-15.5,6.8-32,11.5-49.5,13.6c17.8-10.7,31.4-27.6,37.9-47.6c-16.7,9.9-35.1,17-54.7,20.9
			c-15.7-16.8-38.1-27.2-62.9-27.2c-47.6,0-86.2,38.6-86.2,86.1c0,6.7,0.8,13.3,2.2,19.6c-71.6-3.6-135.1-37.9-177.6-90
			c-7.4,12.7-11.7,27.5-11.7,43.3c0,29.9,15.2,56.3,38.3,71.7c-14.1-0.5-27.4-4.4-39-10.8v1.1c0,41.7,29.7,76.6,69.1,84.5
			c-7.2,1.9-14.8,3-22.7,3c-5.6,0-10.9-0.6-16.2-1.6c11,34.2,42.8,59.2,80.5,59.8C101,335.3,63.9,349,23.5,349
			c-7,0-13.8-0.4-20.5-1.2c38.1,24.5,83.4,38.8,132.1,38.8c158.5,0,245.1-131.3,245.1-245.1l-0.3-11.2
			C396.8,118.2,411.5,103.1,423,85.8z"/>
	</g>
</g>
</svg>
