<svg xmlns="http://www.w3.org/2000/svg" viewBox="0 0 50 50"  xmlns:v="https://vecta.io/nano"><path d="M47.2 2.8C46 1.6 44.5 1 42.8 1H7.2C5.5 1 4 1.6 2.8 2.8S1 5.5 1 7.1v35.7c0 1.7.6 3.1 1.8 4.3C4 48.4 5.5 49 7.2 49h35.7c1.7 0 3.1-.6 4.3-1.8s1.8-2.7 1.8-4.3V7.1c0-1.6-.6-3.1-1.8-4.3zm-29 15.5c1.9-1.8 4.1-2.7 6.8-2.7s4.9.9 6.8 2.7 2.8 4 2.8 6.6-.9 4.8-2.8 6.6-4.2 2.7-6.8 2.7-4.9-.9-6.8-2.7-2.8-4-2.8-6.6.9-4.8 2.8-6.6zm25.4 23.3c0 .5-.2 1-.6 1.4s-.8.5-1.3.5H8.2c-.5 0-1-.2-1.4-.5-.4-.4-.5-.8-.5-1.4V21.3h4.4c-.4 1.3-.6 2.7-.6 4.1 0 4 1.5 7.4 4.4 10.2s6.4 4.2 10.5 4.2c2.7 0 5.2-.6 7.5-1.9s4.1-3 5.4-5.3c1.3-2.2 2-4.6 2-7.3 0-1.4-.2-2.8-.6-4.1h4.2l.1 20.4zm0-28c0 .6-.2 1.1-.6 1.5s-.9.6-1.5.6H36c-.6 0-1.1-.2-1.5-.6s-.6-.9-.6-1.5V8.5c0-.6.2-1.1.6-1.5s.9-.6 1.5-.6h5.4c.6 0 1.1.2 1.5.6s.6.9.6 1.5v5.1z"/></svg>