<?xml version="1.0" encoding="utf-8"?>
<!-- Generator: Adobe Illustrator 27.5.0, SVG Export Plug-In . SVG Version: 6.00 Build 0)  -->
<!DOCTYPE svg PUBLIC "-//W3C//DTD SVG 1.1//EN" "http://www.w3.org/Graphics/SVG/1.1/DTD/svg11.dtd" [
	<!ENTITY ns_extend "http://ns.adobe.com/Extensibility/1.0/">
	<!ENTITY ns_ai "http://ns.adobe.com/AdobeIllustrator/10.0/">
	<!ENTITY ns_graphs "http://ns.adobe.com/Graphs/1.0/">
	<!ENTITY ns_vars "http://ns.adobe.com/Variables/1.0/">
	<!ENTITY ns_imrep "http://ns.adobe.com/ImageReplacement/1.0/">
	<!ENTITY ns_sfw "http://ns.adobe.com/SaveForWeb/1.0/">
	<!ENTITY ns_custom "http://ns.adobe.com/GenericCustomNamespace/1.0/">
	<!ENTITY ns_adobe_xpath "http://ns.adobe.com/XPath/1.0/">
]>
<svg version="1.1"
	 id="Слой_1" xmlns:x="&ns_extend;" xmlns:i="&ns_ai;" xmlns:graph="&ns_graphs;" shape-rendering="geometricPrecision" text-rendering="geometricPrecision" image-rendering="optimizeQuality"
	 xmlns="http://www.w3.org/2000/svg" xmlns:xlink="http://www.w3.org/1999/xlink" x="0px" y="0px" viewBox="0 0 25 25"
	 style="enable-background:new 0 0 25 25;" xml:space="preserve">
<style type="text/css">
	.st0{fill-rule:evenodd;clip-rule:evenodd;}
</style>
<metadata>
	<sfw  xmlns="&ns_sfw;">
		<slices></slices>
		<sliceSourceBounds  bottomLeftOrigin="true" height="24" width="18.7" x="1289.6" y="1654.5"></sliceSourceBounds>
	</sfw>
</metadata>
<path class="st0" d="M7.3,24.5c1.3-1.2,2.2-2.9,2.7-4.6c0.2-0.7,0.9-3.5,0.9-3.5c0.5,0.9,1.9,1.7,3.4,1.7c4.4,0,7.6-4.1,7.6-9.1
	c0-4.8-4-8.5-9-8.5c-6.3,0-9.7,4.2-9.7,8.9c0,2.1,1.1,4.8,3,5.7c0.3,0.1,0.4,0.1,0.5-0.2c0-0.2,0.3-1.2,0.4-1.7c0-0.1,0-0.3-0.1-0.4
	C6.3,12,5.8,10.7,5.8,9.4C5.8,6.2,8.3,3,12.4,3c3.6,0,6.1,2.4,6.1,6c0,4-2,6.7-4.6,6.7c-1.4,0-2.5-1.2-2.2-2.6
	c0.4-1.7,1.2-3.6,1.2-4.9c0-1.1-0.6-2.1-1.9-2.1c-1.5,0-2.6,1.5-2.6,3.6c0,1.3,0.4,2.2,0.4,2.2S7.5,18,7.2,19.2
	c-0.3,1.3-0.2,3-0.1,4.2L7.3,24.5L7.3,24.5z"/>
</svg>
