<?xml version="1.0" encoding="utf-8"?>
<!-- Generator: Adobe Illustrator 27.7.0, SVG Export Plug-In . SVG Version: 6.00 Build 0)  -->
<!DOCTYPE svg PUBLIC "-//W3C//DTD SVG 1.1//EN" "http://www.w3.org/Graphics/SVG/1.1/DTD/svg11.dtd" [
	<!ENTITY ns_extend "http://ns.adobe.com/Extensibility/1.0/">
	<!ENTITY ns_ai "http://ns.adobe.com/AdobeIllustrator/10.0/">
	<!ENTITY ns_graphs "http://ns.adobe.com/Graphs/1.0/">
	<!ENTITY ns_vars "http://ns.adobe.com/Variables/1.0/">
	<!ENTITY ns_imrep "http://ns.adobe.com/ImageReplacement/1.0/">
	<!ENTITY ns_sfw "http://ns.adobe.com/SaveForWeb/1.0/">
	<!ENTITY ns_custom "http://ns.adobe.com/GenericCustomNamespace/1.0/">
	<!ENTITY ns_adobe_xpath "http://ns.adobe.com/XPath/1.0/">
]>
<svg version="1.1"
	 id="Слой_1" xmlns:x="&ns_extend;" xmlns:i="&ns_ai;" xmlns:graph="&ns_graphs;" xmlns:v="https://vecta.io/nano"
	 xmlns="http://www.w3.org/2000/svg" xmlns:xlink="http://www.w3.org/1999/xlink" x="0px" y="0px" viewBox="0 0 50 50"
	 style="enable-background:new 0 0 50 50;" xml:space="preserve">
<style type="text/css">
	.st0{display:none;}
</style>
<metadata>
	<sfw  xmlns="&ns_sfw;">
		<slices></slices>
		<sliceSourceBounds  bottomLeftOrigin="true" height="47" width="47" x="1.5" y="1.5"></sliceSourceBounds>
	</sfw>
</metadata>
<path class="st0" d="M25,1.5C12,1.5,1.5,12,1.5,25S12,48.5,25,48.5S48.5,38,48.5,25C48.5,12,38,1.5,25,1.5z M39.4,30.3
	c-0.2,2-1.6,4.5-3.7,4.8c-6.6,0.5-14.5,0.5-21.4,0c-2.2-0.3-3.6-2.9-3.7-4.8c-0.3-4.1-0.3-6.4,0-10.6c0.2-2,1.6-4.5,3.7-4.8
	c6.8-0.6,14.7-0.4,21.4,0c2.4,0.1,3.6,2.6,3.7,4.5C39.8,23.6,39.8,26.2,39.4,30.3z M22.1,30.9l8.8-5.9l-8.8-5.9V30.9z"/>
<path d="M9.3,5.4c-4.3,0-7.8,3.5-7.8,7.8c0,0,0,0,0,0v23.5c0,4.3,3.5,7.8,7.8,7.8c0,0,0,0,0,0h31.3c4.3,0,7.8-3.5,7.8-7.8
	c0,0,0,0,0,0V13.3c0-4.3-3.5-7.8-7.8-7.8c0,0,0,0,0,0C40.7,5.4,9.3,5.4,9.3,5.4z M20.7,16.8c2,0.1,5,1.7,6.4,2.4
	c1.7,0.9,5.9,3.1,5.9,4.8c0,1.8-4.2,4-5.9,4.9c-1.6,0.9-5.8,3.2-7.5,2.3C18,30.5,18,26,18,24.2c0-1.8-0.1-6.3,1.6-7.2
	C19.9,16.9,20.3,16.8,20.7,16.8z"/>
</svg>
