<svg xmlns="http://www.w3.org/2000/svg" xmlns:xlink="http://www.w3.org/1999/xlink" viewBox="0 0 400 29.7" xmlns:v="https://vecta.io/nano"><path d="M33.4 25.9H3.6c-1.6 0-2.9 1-3.3 2.5-.2.4-.3.8-.3 1.3h36.9c.1-2.3-1.6-3.8-3.5-3.8z"/><g stroke="#000" stroke-miterlimit="10"><path d="M20.1 5.8c-.1-.1-.1-1.3-.1-1.3V3.3s-.1-.6.1-.7c.2-.2.7-.2.7-.2H23c.5 0 .9-.3 1-1.2 0-.2 0-.3-.2-.4-.1-.1-.5-.1-.5-.1h-10s-.4-.1-.5.1c-.2.2-.1.3-.1.5.1.8.5 1.2 1 1.2h2.5s.4 0 .6.1c.1.1.1.6.1.6v1.3s0 1.3-.1 1.4l3.3-.1z"/><path d="M20.4 7.3h-3.7c-6.6.8-11.3 6.2-11.3 13.3h26.2c0-7-5-12.4-11.2-13.3z" fill="none" stroke-width="3"/></g><g enable-background="new"><path d="M68.1 6c-1.9-2-4.6-3.3-8-3.3-7.3 0-11.6 5.7-11.6 12.2S52.8 27 60.1 27c2.9 0 5.7-.8 7.8-2v-9.5h-6.7V13h9.6v13.8c-3.2 1.8-7.3 2.9-10.7 2.9-8.4 0-14.7-6.2-14.7-14.8S51.6 0 60 0c4.4 0 7.7 1.3 10.2 3.8L68.1 6zm22.6 23c-.1-1-.1-2-.1-3h-.1c-1.2 2-3.8 3.5-6.2 3.5-4.7 0-7-2.7-7-7.3V10.4H80v10.3c0 4.2 1.2 6.4 5.1 6.4.6 0 5.7-.3 5.7-7.1v-9.6h2.7v14.5c0 1 .1 2.8.2 4.1h-3z"/><use xlink:href="#B"/><use xlink:href="#C"/><path d="M148.1 12.8h-5.4v11c0 2.8 1.1 3.3 2.7 3.3.9 0 1.9-.3 2.7-.7l.1 2.4c-1 .5-2.2.7-3.5.7-2 0-4.6-.9-4.6-5V12.8h-3.9v-2.4h3.9V5.2h2.7v5.2h5.4l-.1 2.4zM166.6 29h-2.9V.8h8.6c5.7 0 9.3 2.5 9.3 7.5 0 3.9-2.6 6.9-7.2 7.3l8.1 13.4H179l-7.7-13.1h-4.8l.1 13.1zm0-15.7h5.1c5.1 0 6.9-2.2 6.9-5s-1.7-4.9-6.9-4.9h-5.1v9.9zm21.6 7.1c.3 3.7 3.2 6.7 6.9 6.7 2.8 0 5-1.6 6-3.2l2 1.7c-2.2 2.8-5 3.9-8 3.9-5.5 0-9.6-4.2-9.6-9.8s4.1-9.8 9.4-9.8c5.7.1 8.9 4.2 8.9 9.3v1.2h-15.6zm12.6-2.1c0-3.5-2.2-6-6.1-6-3.4 0-6.5 2.9-6.5 6h12.6z"/><use xlink:href="#C" x="86.9"/><use xlink:href="#B" x="126"/><path d="M247.8 16.2l-.2-5.8h2.6v3.5h.1c.7-2 2.7-3.9 6-3.9.7 0 1.4.1 2 .2l-.5 2.6c-.3-.1-.8-.2-1.5-.2-4 0-5.8 3.5-5.8 6v10.5h-2.7V16.2zM268.9 29H266l-7.6-18.6h3.2l5.9 15.7h.1l5.9-15.7h3L268.9 29zm22.9-11.4v-.5c0-3.2-1.6-4.8-4.8-4.8-2.2 0-4.1.7-5.7 2.2l-1.6-1.8c1.7-1.7 4.4-2.7 7.9-2.7 3.6 0 6.8 2.1 6.8 6.6v8.3c0 1.4.2 3.2.3 4.2h-2.5c-.2-.9-.2-2-.2-3h0c-1.5 2.5-3.6 3.5-6.6 3.5-3.3 0-6.4-1.8-6.4-5.5 0-6.1 7.1-6.5 11.6-6.5h1.2zm-1.3 2.2c-2.7 0-8.6.2-8.6 3.9 0 2.5 2.2 3.4 4.4 3.4 3.8 0 5.7-2.7 5.7-6v-1.3h-1.5zm20.2-7.8h-5.6v11.5c0 2.9 1.1 3.5 2.8 3.5 1 0 2-.3 2.8-.7l.1 2.5c-1 .5-2.3.7-3.7.7-2.1 0-4.8-.9-4.8-5.2V12h-4.1V9.6h4.1V4.1h2.8v5.5h5.6V12zm5.7-7.9c-1 0-2-.8-2-2s1-2 2-2 2 .8 2 2-1 2-2 2zm1.4 24.9H315V9.6h2.8V29zm15.9.5c-6 0-10.3-4.4-10.3-10.2 0-5.9 4.3-10.2 10.3-10.2 6.1 0 10.3 4.4 10.3 10.2s-4.2 10.2-10.3 10.2zm0-17.9c-4.5 0-7.3 3.3-7.3 7.7s2.8 7.7 7.3 7.7 7.3-3.3 7.3-7.7-2.8-7.7-7.3-7.7zm17.9-2c.1 1 .1 2.1.1 3.1h.1c1.2-2.1 3.9-3.6 6.5-3.6 5 0 7.3 2.8 7.3 7.6V29h-2.8V18.3c0-4.3-1.2-6.7-5.2-6.7-.6 0-5.9.3-5.9 7.5v10H349V13.9c0-1-.1-2.9-.2-4.3h2.8zm30.8 4.6c-.8-1.6-2.2-2.6-4.2-2.6-1.9 0-4 .8-4 2.9 0 1.8 1.3 2.5 3.8 3.1l2.8.7c2.7.6 4.7 2.6 4.7 5.3 0 4.2-3.8 6-7.6 6-2.9 0-5.7-1-7.5-3.8l2.4-1.6c1.1 1.7 2.8 2.9 5.1 2.9 2.2 0 4.6-1 4.6-3.2 0-2-1.7-2.6-3.7-3.1l-2.7-.6c-1.3-.3-5-1.4-5-5.1 0-4 3.5-5.9 7.2-5.9 2.7 0 5.2 1 6.5 3.5l-2.4 1.5z"/></g><path d="M391.6 2.3h-1.8v5.5h-1.3V2.3h-1.8v-1h5v1zm3.3-1l1.7 4.8 1.7-4.8h1.7v6.6h-1.3v-2l.1-2.9-1.7 4.8h-.9L394.5 3l.1 2.9v2h-1.3V1.3h1.6z"/><defs ><path id="B" d="M101.2 20.4c.3 3.7 3.2 6.7 6.9 6.7 2.8 0 5-1.6 6-3.2l2 1.7c-2.2 2.8-5 3.9-8 3.9-5.5 0-9.6-4.2-9.6-9.8s4.1-9.8 9.4-9.8c5.7.1 8.9 4.2 8.9 9.3v1.2h-15.6zm12.7-2.1c0-3.5-2.2-6-6.1-6-3.4 0-6.5 2.9-6.5 6h12.6z"/><path id="C" d="M131.4 14.8c-.8-1.5-2.1-2.5-4-2.5-1.8 0-3.9.8-3.9 2.8 0 1.7 1.2 2.4 3.6 2.9l2.7.6c2.6.6 4.6 2.5 4.6 5.1 0 4-3.6 5.7-7.3 5.7-2.8 0-5.4-1-7.1-3.6l2.2-1.6c1.1 1.7 2.7 2.8 4.9 2.8 2.1 0 4.4-1 4.4-3.1 0-1.8-1.6-2.5-3.5-3l-2.5-.6c-1.3-.3-4.8-1.3-4.8-4.9 0-3.9 3.4-5.6 6.9-5.6 2.6 0 5 .9 6.2 3.3l-2.4 1.7z"/></defs></svg>