<?xml version="1.0" encoding="utf-8"?>
<!-- Generator: Adobe Illustrator 22.0.1, SVG Export Plug-In . SVG Version: 6.00 Build 0)  -->
<svg version="1.1" id="Layer_1" xmlns="http://www.w3.org/2000/svg" xmlns:xlink="http://www.w3.org/1999/xlink" x="0px" y="0px"
	 viewBox="0 0 512 512" style="enable-background:new 0 0 512 512;" xml:space="preserve">
<style type="text/css">
	.st0{fill:#FFFFFF;}
</style>
<g>
	<path class="st0" d="M426.3,410.8c-42,0-88.4,0-101.5,0v-24.6h93.4c-7.8-23.9-14.8-45-14.8-45c-7.8,0-35.3,0-70.5,0
		c-21.2,20.2-40.7,38.7-58.2,62.8L256,429.5l-18.7-25.6c-17.7-24.2-37.7-43.1-58.2-62.8c-40.7,0-70.5,0-70.5,0
		c-0.1,0.4-7,21.3-14.8,45h93.4v24.6c-18,0-63.6,0-101.5,0c-7.4,22.6-13.8,42-14,42.6h368.5C440.1,452.8,433.7,433.3,426.3,410.8
		L426.3,410.8z"/>
	<path class="st0" d="M256,390.3c55.7-76.4,135.1-105.9,135.1-196.5c0-77.4-57.7-135.1-135.1-135.1c-77.4,0-135.1,57.7-135.1,135.1
		C120.9,284.4,200.3,313.9,256,390.3z M256,162c20.3,0,36.9,16.6,36.9,36.9c0,20.3-16.6,36.9-36.9,36.9c-20.3,0-36.9-16.6-36.9-36.9
		C219.1,178.5,235.7,162,256,162z"/>
</g>
</svg>
