<svg width="16" height="16" viewBox="0 0 16 16" fill="none" xmlns="http://www.w3.org/2000/svg">
<g id="calendar_month_24dp_5F6368_FILL0_wght400_GRAD0_opsz24 4">
<path id="Vector" d="M3.33333 14.6668C2.96667 14.6668 2.65278 14.5363 2.39167 14.2752C2.13056 14.0141 2 13.7002 2 13.3335V4.00016C2 3.6335 2.13056 3.31961 2.39167 3.0585C2.65278 2.79738 2.96667 2.66683 3.33333 2.66683H4V1.3335H5.33333V2.66683H10.6667V1.3335H12V2.66683H12.6667C13.0333 2.66683 13.3472 2.79738 13.6083 3.0585C13.8694 3.31961 14 3.6335 14 4.00016V13.3335C14 13.7002 13.8694 14.0141 13.6083 14.2752C13.3472 14.5363 13.0333 14.6668 12.6667 14.6668H3.33333ZM3.33333 13.3335H12.6667V6.66683H3.33333V13.3335ZM3.33333 5.3335H12.6667V4.00016H3.33333V5.3335ZM8 9.3335C7.81111 9.3335 7.65278 9.26961 7.525 9.14183C7.39722 9.01405 7.33333 8.85572 7.33333 8.66683C7.33333 8.47794 7.39722 8.31961 7.525 8.19183C7.65278 8.06405 7.81111 8.00016 8 8.00016C8.18889 8.00016 8.34722 8.06405 8.475 8.19183C8.60278 8.31961 8.66667 8.47794 8.66667 8.66683C8.66667 8.85572 8.60278 9.01405 8.475 9.14183C8.34722 9.26961 8.18889 9.3335 8 9.3335ZM5.33333 9.3335C5.14444 9.3335 4.98611 9.26961 4.85833 9.14183C4.73056 9.01405 4.66667 8.85572 4.66667 8.66683C4.66667 8.47794 4.73056 8.31961 4.85833 8.19183C4.98611 8.06405 5.14444 8.00016 5.33333 8.00016C5.52222 8.00016 5.68056 8.06405 5.80833 8.19183C5.93611 8.31961 6 8.47794 6 8.66683C6 8.85572 5.93611 9.01405 5.80833 9.14183C5.68056 9.26961 5.52222 9.3335 5.33333 9.3335ZM10.6667 9.3335C10.4778 9.3335 10.3194 9.26961 10.1917 9.14183C10.0639 9.01405 10 8.85572 10 8.66683C10 8.47794 10.0639 8.31961 10.1917 8.19183C10.3194 8.06405 10.4778 8.00016 10.6667 8.00016C10.8556 8.00016 11.0139 8.06405 11.1417 8.19183C11.2694 8.31961 11.3333 8.47794 11.3333 8.66683C11.3333 8.85572 11.2694 9.01405 11.1417 9.14183C11.0139 9.26961 10.8556 9.3335 10.6667 9.3335ZM8 12.0002C7.81111 12.0002 7.65278 11.9363 7.525 11.8085C7.39722 11.6807 7.33333 11.5224 7.33333 11.3335C7.33333 11.1446 7.39722 10.9863 7.525 10.8585C7.65278 10.7307 7.81111 10.6668 8 10.6668C8.18889 10.6668 8.34722 10.7307 8.475 10.8585C8.60278 10.9863 8.66667 11.1446 8.66667 11.3335C8.66667 11.5224 8.60278 11.6807 8.475 11.8085C8.34722 11.9363 8.18889 12.0002 8 12.0002ZM5.33333 12.0002C5.14444 12.0002 4.98611 11.9363 4.85833 11.8085C4.73056 11.6807 4.66667 11.5224 4.66667 11.3335C4.66667 11.1446 4.73056 10.9863 4.85833 10.8585C4.98611 10.7307 5.14444 10.6668 5.33333 10.6668C5.52222 10.6668 5.68056 10.7307 5.80833 10.8585C5.93611 10.9863 6 11.1446 6 11.3335C6 11.5224 5.93611 11.6807 5.80833 11.8085C5.68056 11.9363 5.52222 12.0002 5.33333 12.0002ZM10.6667 12.0002C10.4778 12.0002 10.3194 11.9363 10.1917 11.8085C10.0639 11.6807 10 11.5224 10 11.3335C10 11.1446 10.0639 10.9863 10.1917 10.8585C10.3194 10.7307 10.4778 10.6668 10.6667 10.6668C10.8556 10.6668 11.0139 10.7307 11.1417 10.8585C11.2694 10.9863 11.3333 11.1446 11.3333 11.3335C11.3333 11.5224 11.2694 11.6807 11.1417 11.8085C11.0139 11.9363 10.8556 12.0002 10.6667 12.0002Z" fill="#CBCBCB"/>
</g>
</svg>
